<mxfile host="app.diagrams.net" modified="2023-07-04T08:47:52.599Z" agent="Mozilla/5.0 (Macintosh; Intel Mac OS X 10_15_7) AppleWebKit/537.36 (KHTML, like Gecko) Chrome/114.0.0.0 Safari/537.36" etag="j4wF4JfXis_oD8EWLBHX" version="21.5.1" type="github">
  <diagram name="Page-1" id="82Kx7SFXTsUjgZJkPYat">
    <mxGraphModel dx="1194" dy="797" grid="1" gridSize="10" guides="1" tooltips="1" connect="1" arrows="1" fold="1" page="1" pageScale="1" pageWidth="850" pageHeight="1100" math="0" shadow="0">
      <root>
        <mxCell id="0" />
        <mxCell id="1" parent="0" />
        <mxCell id="iu4JL6hjBt67AG2MAdG2-46" style="edgeStyle=orthogonalEdgeStyle;rounded=0;orthogonalLoop=1;jettySize=auto;html=1;exitX=0.75;exitY=1;exitDx=0;exitDy=0;entryX=0.25;entryY=0;entryDx=0;entryDy=0;" edge="1" parent="1" source="iu4JL6hjBt67AG2MAdG2-36" target="iu4JL6hjBt67AG2MAdG2-43">
          <mxGeometry relative="1" as="geometry" />
        </mxCell>
        <mxCell id="iu4JL6hjBt67AG2MAdG2-45" style="edgeStyle=orthogonalEdgeStyle;rounded=0;orthogonalLoop=1;jettySize=auto;html=1;exitX=1;exitY=0.25;exitDx=0;exitDy=0;entryX=0.25;entryY=1;entryDx=0;entryDy=0;" edge="1" parent="1" source="iu4JL6hjBt67AG2MAdG2-2" target="iu4JL6hjBt67AG2MAdG2-43">
          <mxGeometry relative="1" as="geometry">
            <Array as="points">
              <mxPoint x="690" y="675" />
              <mxPoint x="690" y="620" />
              <mxPoint x="743" y="620" />
            </Array>
          </mxGeometry>
        </mxCell>
        <mxCell id="iu4JL6hjBt67AG2MAdG2-37" style="edgeStyle=orthogonalEdgeStyle;rounded=0;orthogonalLoop=1;jettySize=auto;html=1;exitX=0.75;exitY=0;exitDx=0;exitDy=0;entryX=0.5;entryY=1;entryDx=0;entryDy=0;" edge="1" parent="1" source="iu4JL6hjBt67AG2MAdG2-2" target="iu4JL6hjBt67AG2MAdG2-36">
          <mxGeometry relative="1" as="geometry">
            <Array as="points">
              <mxPoint x="480" y="650" />
              <mxPoint x="530" y="650" />
              <mxPoint x="530" y="500" />
              <mxPoint x="670" y="500" />
            </Array>
          </mxGeometry>
        </mxCell>
        <mxCell id="CwB2cmDh5bo-2nJxtTwJ-1" value="StatsProvider (NullStatsProvider)" style="rounded=0;whiteSpace=wrap;html=1;" parent="1" vertex="1">
          <mxGeometry x="80" y="130" width="150" height="60" as="geometry" />
        </mxCell>
        <mxCell id="CwB2cmDh5bo-2nJxtTwJ-2" value="MetadataBookieDriver&lt;br&gt;&amp;nbsp;(ZKMetadataBookieDriver&lt;span style=&quot;background-color: initial;&quot;&gt;)&lt;/span&gt;" style="rounded=0;whiteSpace=wrap;html=1;" parent="1" vertex="1">
          <mxGeometry x="135" y="220" width="170" height="60" as="geometry" />
        </mxCell>
        <mxCell id="ft-VFnhlPFLqep18iLet-1" style="edgeStyle=orthogonalEdgeStyle;rounded=0;orthogonalLoop=1;jettySize=auto;html=1;exitX=0.5;exitY=0;exitDx=0;exitDy=0;" parent="1" source="CwB2cmDh5bo-2nJxtTwJ-4" target="CwB2cmDh5bo-2nJxtTwJ-2" edge="1">
          <mxGeometry relative="1" as="geometry" />
        </mxCell>
        <mxCell id="ft-VFnhlPFLqep18iLet-2" style="edgeStyle=orthogonalEdgeStyle;rounded=0;orthogonalLoop=1;jettySize=auto;html=1;exitX=0;exitY=0.5;exitDx=0;exitDy=0;entryX=1;entryY=0.5;entryDx=0;entryDy=0;" parent="1" source="CwB2cmDh5bo-2nJxtTwJ-4" target="CwB2cmDh5bo-2nJxtTwJ-9" edge="1">
          <mxGeometry relative="1" as="geometry" />
        </mxCell>
        <mxCell id="ft-VFnhlPFLqep18iLet-3" style="edgeStyle=orthogonalEdgeStyle;rounded=0;orthogonalLoop=1;jettySize=auto;html=1;exitX=0.5;exitY=1;exitDx=0;exitDy=0;entryX=0.5;entryY=0;entryDx=0;entryDy=0;" parent="1" source="CwB2cmDh5bo-2nJxtTwJ-4" target="CwB2cmDh5bo-2nJxtTwJ-7" edge="1">
          <mxGeometry relative="1" as="geometry">
            <Array as="points">
              <mxPoint x="220" y="360" />
            </Array>
          </mxGeometry>
        </mxCell>
        <mxCell id="ft-VFnhlPFLqep18iLet-4" style="edgeStyle=orthogonalEdgeStyle;rounded=0;orthogonalLoop=1;jettySize=auto;html=1;exitX=1;exitY=0.5;exitDx=0;exitDy=0;entryX=0;entryY=0.5;entryDx=0;entryDy=0;" parent="1" source="CwB2cmDh5bo-2nJxtTwJ-4" target="CwB2cmDh5bo-2nJxtTwJ-5" edge="1">
          <mxGeometry relative="1" as="geometry" />
        </mxCell>
        <mxCell id="ft-VFnhlPFLqep18iLet-7" style="edgeStyle=orthogonalEdgeStyle;rounded=0;orthogonalLoop=1;jettySize=auto;html=1;exitX=0.75;exitY=1;exitDx=0;exitDy=0;" parent="1" source="CwB2cmDh5bo-2nJxtTwJ-4" target="CwB2cmDh5bo-2nJxtTwJ-10" edge="1">
          <mxGeometry relative="1" as="geometry" />
        </mxCell>
        <mxCell id="CwB2cmDh5bo-2nJxtTwJ-4" value="Zookeeper" style="rounded=1;whiteSpace=wrap;html=1;" parent="1" vertex="1">
          <mxGeometry x="180" y="310" width="80" height="30" as="geometry" />
        </mxCell>
        <mxCell id="ft-VFnhlPFLqep18iLet-6" style="edgeStyle=orthogonalEdgeStyle;rounded=0;orthogonalLoop=1;jettySize=auto;html=1;exitX=0.5;exitY=0;exitDx=0;exitDy=0;entryX=0.75;entryY=1;entryDx=0;entryDy=0;" parent="1" source="CwB2cmDh5bo-2nJxtTwJ-5" target="CwB2cmDh5bo-2nJxtTwJ-2" edge="1">
          <mxGeometry relative="1" as="geometry" />
        </mxCell>
        <mxCell id="CwB2cmDh5bo-2nJxtTwJ-5" value="ZKLayourManager" style="rounded=1;whiteSpace=wrap;html=1;" parent="1" vertex="1">
          <mxGeometry x="300" y="330" width="110" height="30" as="geometry" />
        </mxCell>
        <mxCell id="iu4JL6hjBt67AG2MAdG2-13" style="edgeStyle=orthogonalEdgeStyle;rounded=0;orthogonalLoop=1;jettySize=auto;html=1;exitX=0.5;exitY=1;exitDx=0;exitDy=0;entryX=0;entryY=0.5;entryDx=0;entryDy=0;" edge="1" parent="1" source="CwB2cmDh5bo-2nJxtTwJ-7" target="iu4JL6hjBt67AG2MAdG2-12">
          <mxGeometry relative="1" as="geometry">
            <Array as="points">
              <mxPoint x="145" y="480" />
              <mxPoint x="40" y="480" />
              <mxPoint x="40" y="770" />
            </Array>
          </mxGeometry>
        </mxCell>
        <mxCell id="iu4JL6hjBt67AG2MAdG2-15" style="edgeStyle=orthogonalEdgeStyle;rounded=0;orthogonalLoop=1;jettySize=auto;html=1;exitX=0;exitY=0.75;exitDx=0;exitDy=0;entryX=0;entryY=0.5;entryDx=0;entryDy=0;" edge="1" parent="1" source="CwB2cmDh5bo-2nJxtTwJ-7" target="iu4JL6hjBt67AG2MAdG2-14">
          <mxGeometry relative="1" as="geometry">
            <Array as="points">
              <mxPoint x="20" y="455" />
              <mxPoint x="20" y="830" />
            </Array>
          </mxGeometry>
        </mxCell>
        <mxCell id="CwB2cmDh5bo-2nJxtTwJ-7" value="RegistrationManager&lt;br&gt;&amp;nbsp;(ZKRegistrationManager&lt;span style=&quot;background-color: initial;&quot;&gt;)&lt;/span&gt;" style="rounded=0;whiteSpace=wrap;html=1;" parent="1" vertex="1">
          <mxGeometry x="60" y="410" width="170" height="60" as="geometry" />
        </mxCell>
        <mxCell id="CwB2cmDh5bo-2nJxtTwJ-8" value="/ledgers&lt;br&gt;&lt;span style=&quot;&quot;&gt;&lt;span style=&quot;white-space: pre;&quot;&gt;&amp;nbsp;&amp;nbsp;&amp;nbsp;&amp;nbsp;&lt;/span&gt;&lt;/span&gt;/LAYOUT&lt;br&gt;&lt;span style=&quot;&quot;&gt;&lt;span style=&quot;&quot;&gt;&amp;nbsp;&amp;nbsp;&amp;nbsp;&amp;nbsp;&lt;/span&gt;&lt;/span&gt;/cookies&lt;br&gt;&lt;span style=&quot;&quot;&gt;&lt;span style=&quot;&quot;&gt;&amp;nbsp;&amp;nbsp;&amp;nbsp;&amp;nbsp;&lt;/span&gt;&lt;/span&gt;/available&lt;br&gt;&lt;span style=&quot;&quot;&gt;&lt;span style=&quot;&quot;&gt;&lt;span style=&quot;&quot;&gt;&amp;nbsp;&amp;nbsp;&amp;nbsp;&amp;nbsp;&lt;/span&gt;&lt;/span&gt;&lt;span style=&quot;&quot;&gt;&lt;span style=&quot;&quot;&gt;&amp;nbsp;&amp;nbsp;&amp;nbsp;&amp;nbsp;/&lt;/span&gt;&lt;/span&gt;&lt;/span&gt;readonly" style="text;strokeColor=none;align=left;fillColor=none;html=1;verticalAlign=middle;whiteSpace=wrap;rounded=0;" parent="1" vertex="1">
          <mxGeometry x="355" y="10" width="200" height="220" as="geometry" />
        </mxCell>
        <mxCell id="ft-VFnhlPFLqep18iLet-5" style="edgeStyle=orthogonalEdgeStyle;rounded=0;orthogonalLoop=1;jettySize=auto;html=1;exitX=0.5;exitY=1;exitDx=0;exitDy=0;entryX=0;entryY=0.5;entryDx=0;entryDy=0;" parent="1" source="CwB2cmDh5bo-2nJxtTwJ-9" target="CwB2cmDh5bo-2nJxtTwJ-7" edge="1">
          <mxGeometry relative="1" as="geometry" />
        </mxCell>
        <mxCell id="CwB2cmDh5bo-2nJxtTwJ-9" value="ZKLayourManager" style="rounded=1;whiteSpace=wrap;html=1;" parent="1" vertex="1">
          <mxGeometry x="30" y="320" width="110" height="30" as="geometry" />
        </mxCell>
        <mxCell id="ft-VFnhlPFLqep18iLet-9" style="edgeStyle=orthogonalEdgeStyle;rounded=0;orthogonalLoop=1;jettySize=auto;html=1;exitX=0.5;exitY=1;exitDx=0;exitDy=0;entryX=0.5;entryY=0;entryDx=0;entryDy=0;shape=link;" parent="1" source="CwB2cmDh5bo-2nJxtTwJ-10" target="ft-VFnhlPFLqep18iLet-8" edge="1">
          <mxGeometry relative="1" as="geometry" />
        </mxCell>
        <mxCell id="CwB2cmDh5bo-2nJxtTwJ-10" value="LedgerManagerFactory&lt;br&gt;&amp;nbsp;(LongHierarchicalLedgerManagerFactory&lt;span style=&quot;background-color: initial;&quot;&gt;)&lt;/span&gt;" style="rounded=0;whiteSpace=wrap;html=1;" parent="1" vertex="1">
          <mxGeometry x="250" y="410" width="240" height="60" as="geometry" />
        </mxCell>
        <mxCell id="iu4JL6hjBt67AG2MAdG2-4" style="edgeStyle=orthogonalEdgeStyle;rounded=0;orthogonalLoop=1;jettySize=auto;html=1;exitX=0.5;exitY=1;exitDx=0;exitDy=0;" edge="1" parent="1" source="ft-VFnhlPFLqep18iLet-8" target="iu4JL6hjBt67AG2MAdG2-2">
          <mxGeometry relative="1" as="geometry" />
        </mxCell>
        <mxCell id="iu4JL6hjBt67AG2MAdG2-44" style="edgeStyle=orthogonalEdgeStyle;rounded=0;orthogonalLoop=1;jettySize=auto;html=1;exitX=1;exitY=0.25;exitDx=0;exitDy=0;entryX=0;entryY=0;entryDx=0;entryDy=0;" edge="1" parent="1" source="ft-VFnhlPFLqep18iLet-8" target="iu4JL6hjBt67AG2MAdG2-43">
          <mxGeometry relative="1" as="geometry" />
        </mxCell>
        <mxCell id="ft-VFnhlPFLqep18iLet-8" value="LedgerManager&lt;br&gt;&amp;nbsp;(LongHierarchicalLedgerManager&lt;span style=&quot;background-color: initial;&quot;&gt;)&lt;/span&gt;" style="rounded=0;whiteSpace=wrap;html=1;" parent="1" vertex="1">
          <mxGeometry x="230" y="520" width="240" height="60" as="geometry" />
        </mxCell>
        <mxCell id="ft-VFnhlPFLqep18iLet-12" style="edgeStyle=orthogonalEdgeStyle;rounded=0;orthogonalLoop=1;jettySize=auto;html=1;exitX=0.5;exitY=1;exitDx=0;exitDy=0;entryX=0.5;entryY=0;entryDx=0;entryDy=0;" parent="1" source="ft-VFnhlPFLqep18iLet-10" target="ft-VFnhlPFLqep18iLet-11" edge="1">
          <mxGeometry relative="1" as="geometry" />
        </mxCell>
        <mxCell id="iu4JL6hjBt67AG2MAdG2-17" style="edgeStyle=orthogonalEdgeStyle;rounded=0;orthogonalLoop=1;jettySize=auto;html=1;exitX=1;exitY=1;exitDx=0;exitDy=0;entryX=0.25;entryY=0;entryDx=0;entryDy=0;" edge="1" parent="1" source="ft-VFnhlPFLqep18iLet-10" target="iu4JL6hjBt67AG2MAdG2-14">
          <mxGeometry relative="1" as="geometry" />
        </mxCell>
        <mxCell id="ft-VFnhlPFLqep18iLet-10" value="DiskChecker" style="rounded=0;whiteSpace=wrap;html=1;" parent="1" vertex="1">
          <mxGeometry x="60" y="490" width="150" height="60" as="geometry" />
        </mxCell>
        <mxCell id="ft-VFnhlPFLqep18iLet-15" style="edgeStyle=orthogonalEdgeStyle;rounded=0;orthogonalLoop=1;jettySize=auto;html=1;exitX=0.5;exitY=1;exitDx=0;exitDy=0;entryX=0.5;entryY=0;entryDx=0;entryDy=0;" parent="1" source="ft-VFnhlPFLqep18iLet-11" target="ft-VFnhlPFLqep18iLet-14" edge="1">
          <mxGeometry relative="1" as="geometry" />
        </mxCell>
        <mxCell id="iu4JL6hjBt67AG2MAdG2-3" style="edgeStyle=orthogonalEdgeStyle;rounded=0;orthogonalLoop=1;jettySize=auto;html=1;exitX=1;exitY=0.5;exitDx=0;exitDy=0;entryX=0;entryY=0.5;entryDx=0;entryDy=0;" edge="1" parent="1" source="ft-VFnhlPFLqep18iLet-11" target="iu4JL6hjBt67AG2MAdG2-2">
          <mxGeometry relative="1" as="geometry">
            <Array as="points">
              <mxPoint x="300" y="620" />
              <mxPoint x="300" y="690" />
            </Array>
          </mxGeometry>
        </mxCell>
        <mxCell id="iu4JL6hjBt67AG2MAdG2-18" style="edgeStyle=orthogonalEdgeStyle;rounded=0;orthogonalLoop=1;jettySize=auto;html=1;exitX=1;exitY=1;exitDx=0;exitDy=0;entryX=0.75;entryY=0;entryDx=0;entryDy=0;" edge="1" parent="1" source="ft-VFnhlPFLqep18iLet-11" target="iu4JL6hjBt67AG2MAdG2-14">
          <mxGeometry relative="1" as="geometry" />
        </mxCell>
        <mxCell id="ft-VFnhlPFLqep18iLet-11" value="LedgerDirsManager&lt;br&gt;(ledgerDirsManager,&amp;nbsp;indexDirsManager&lt;span style=&quot;background-color: initial;&quot;&gt;)&lt;/span&gt;" style="rounded=0;whiteSpace=wrap;html=1;" parent="1" vertex="1">
          <mxGeometry x="60" y="590" width="220" height="60" as="geometry" />
        </mxCell>
        <mxCell id="iu4JL6hjBt67AG2MAdG2-5" style="edgeStyle=orthogonalEdgeStyle;rounded=0;orthogonalLoop=1;jettySize=auto;html=1;exitX=0.5;exitY=1;exitDx=0;exitDy=0;entryX=1;entryY=0.5;entryDx=0;entryDy=0;" edge="1" parent="1" source="ft-VFnhlPFLqep18iLet-13" target="iu4JL6hjBt67AG2MAdG2-2">
          <mxGeometry relative="1" as="geometry">
            <mxPoint x="680" y="830" as="targetPoint" />
            <Array as="points">
              <mxPoint x="580" y="690" />
            </Array>
          </mxGeometry>
        </mxCell>
        <mxCell id="iu4JL6hjBt67AG2MAdG2-19" style="edgeStyle=orthogonalEdgeStyle;rounded=0;orthogonalLoop=1;jettySize=auto;html=1;exitX=0.75;exitY=1;exitDx=0;exitDy=0;entryX=1;entryY=0.25;entryDx=0;entryDy=0;" edge="1" parent="1" source="ft-VFnhlPFLqep18iLet-13" target="iu4JL6hjBt67AG2MAdG2-14">
          <mxGeometry relative="1" as="geometry" />
        </mxCell>
        <mxCell id="iu4JL6hjBt67AG2MAdG2-23" style="edgeStyle=orthogonalEdgeStyle;rounded=0;orthogonalLoop=1;jettySize=auto;html=1;exitX=1;exitY=1;exitDx=0;exitDy=0;entryX=1;entryY=0.5;entryDx=0;entryDy=0;" edge="1" parent="1" source="ft-VFnhlPFLqep18iLet-13" target="iu4JL6hjBt67AG2MAdG2-21">
          <mxGeometry relative="1" as="geometry" />
        </mxCell>
        <mxCell id="ft-VFnhlPFLqep18iLet-13" value="ByteBufAllocatorWithOomHandler&lt;br&gt;(ByteBufAllocator)" style="rounded=0;whiteSpace=wrap;html=1;" parent="1" vertex="1">
          <mxGeometry x="480" y="570" width="200" height="60" as="geometry" />
        </mxCell>
        <mxCell id="iu4JL6hjBt67AG2MAdG2-24" style="edgeStyle=orthogonalEdgeStyle;rounded=0;orthogonalLoop=1;jettySize=auto;html=1;exitX=1;exitY=1;exitDx=0;exitDy=0;entryX=0.5;entryY=0;entryDx=0;entryDy=0;" edge="1" parent="1" source="ft-VFnhlPFLqep18iLet-14" target="iu4JL6hjBt67AG2MAdG2-21">
          <mxGeometry relative="1" as="geometry">
            <Array as="points">
              <mxPoint x="263" y="780" />
              <mxPoint x="455" y="780" />
            </Array>
          </mxGeometry>
        </mxCell>
        <mxCell id="ft-VFnhlPFLqep18iLet-14" value="UncleanShutdownDetectionImpl" style="rounded=0;whiteSpace=wrap;html=1;" parent="1" vertex="1">
          <mxGeometry x="77.5" y="670" width="185" height="60" as="geometry" />
        </mxCell>
        <mxCell id="iu4JL6hjBt67AG2MAdG2-16" style="edgeStyle=orthogonalEdgeStyle;rounded=0;orthogonalLoop=1;jettySize=auto;html=1;exitX=0.25;exitY=1;exitDx=0;exitDy=0;entryX=0.5;entryY=0;entryDx=0;entryDy=0;" edge="1" parent="1" source="iu4JL6hjBt67AG2MAdG2-2" target="iu4JL6hjBt67AG2MAdG2-14">
          <mxGeometry relative="1" as="geometry">
            <Array as="points">
              <mxPoint x="370" y="740" />
              <mxPoint x="253" y="740" />
            </Array>
          </mxGeometry>
        </mxCell>
        <mxCell id="iu4JL6hjBt67AG2MAdG2-28" style="edgeStyle=orthogonalEdgeStyle;rounded=0;orthogonalLoop=1;jettySize=auto;html=1;exitX=1;exitY=0.75;exitDx=0;exitDy=0;entryX=0;entryY=0.75;entryDx=0;entryDy=0;" edge="1" parent="1" source="iu4JL6hjBt67AG2MAdG2-2" target="iu4JL6hjBt67AG2MAdG2-27">
          <mxGeometry relative="1" as="geometry" />
        </mxCell>
        <mxCell id="iu4JL6hjBt67AG2MAdG2-2" value="LedgerStorage&lt;br&gt;(SortedLedgerStorage&lt;span style=&quot;background-color: initial;&quot;&gt;)&lt;/span&gt;" style="rounded=0;whiteSpace=wrap;html=1;" vertex="1" parent="1">
          <mxGeometry x="315" y="660" width="220" height="60" as="geometry" />
        </mxCell>
        <mxCell id="iu4JL6hjBt67AG2MAdG2-7" value="InterleavedLedgerStorage" style="rounded=1;whiteSpace=wrap;html=1;" vertex="1" parent="1">
          <mxGeometry x="390" y="740" width="175" height="30" as="geometry" />
        </mxCell>
        <mxCell id="iu4JL6hjBt67AG2MAdG2-9" style="edgeStyle=orthogonalEdgeStyle;rounded=0;orthogonalLoop=1;jettySize=auto;html=1;exitX=0.5;exitY=0;exitDx=0;exitDy=0;entryX=0.75;entryY=1;entryDx=0;entryDy=0;" edge="1" parent="1" source="iu4JL6hjBt67AG2MAdG2-7" target="iu4JL6hjBt67AG2MAdG2-2">
          <mxGeometry relative="1" as="geometry">
            <mxPoint x="570" y="890" as="sourcePoint" />
            <mxPoint x="478" y="730" as="targetPoint" />
          </mxGeometry>
        </mxCell>
        <mxCell id="iu4JL6hjBt67AG2MAdG2-12" value="CookieValidation" style="ellipse;whiteSpace=wrap;html=1;" vertex="1" parent="1">
          <mxGeometry x="50" y="740" width="132" height="60" as="geometry" />
        </mxCell>
        <mxCell id="iu4JL6hjBt67AG2MAdG2-22" style="edgeStyle=orthogonalEdgeStyle;rounded=0;orthogonalLoop=1;jettySize=auto;html=1;exitX=0.75;exitY=1;exitDx=0;exitDy=0;entryX=0;entryY=0.5;entryDx=0;entryDy=0;" edge="1" parent="1" source="iu4JL6hjBt67AG2MAdG2-14" target="iu4JL6hjBt67AG2MAdG2-21">
          <mxGeometry relative="1" as="geometry" />
        </mxCell>
        <mxCell id="iu4JL6hjBt67AG2MAdG2-14" value="Bookie&lt;br&gt;(BookieImpl&lt;span style=&quot;background-color: initial;&quot;&gt;)&lt;/span&gt;" style="rounded=0;whiteSpace=wrap;html=1;" vertex="1" parent="1">
          <mxGeometry x="168" y="800" width="170" height="60" as="geometry" />
        </mxCell>
        <mxCell id="iu4JL6hjBt67AG2MAdG2-21" value="BookieService" style="rounded=0;whiteSpace=wrap;html=1;" vertex="1" parent="1">
          <mxGeometry x="370" y="870" width="170" height="50" as="geometry" />
        </mxCell>
        <mxCell id="iu4JL6hjBt67AG2MAdG2-27" value="ScrubberService" style="shape=parallelogram;perimeter=parallelogramPerimeter;whiteSpace=wrap;html=1;fixedSize=1;" vertex="1" parent="1">
          <mxGeometry x="690" y="640" width="120" height="60" as="geometry" />
        </mxCell>
        <mxCell id="iu4JL6hjBt67AG2MAdG2-31" value="AutoRecoveryService" style="shape=parallelogram;perimeter=parallelogramPerimeter;whiteSpace=wrap;html=1;fixedSize=1;" vertex="1" parent="1">
          <mxGeometry x="700" y="800" width="160" height="60" as="geometry" />
        </mxCell>
        <mxCell id="iu4JL6hjBt67AG2MAdG2-32" value="DataIntegrityService" style="shape=parallelogram;perimeter=parallelogramPerimeter;whiteSpace=wrap;html=1;fixedSize=1;" vertex="1" parent="1">
          <mxGeometry x="810" y="640" width="160" height="60" as="geometry" />
        </mxCell>
        <mxCell id="iu4JL6hjBt67AG2MAdG2-33" value="HttpService" style="shape=parallelogram;perimeter=parallelogramPerimeter;whiteSpace=wrap;html=1;fixedSize=1;" vertex="1" parent="1">
          <mxGeometry x="705" y="720" width="160" height="60" as="geometry" />
        </mxCell>
        <mxCell id="iu4JL6hjBt67AG2MAdG2-40" style="edgeStyle=orthogonalEdgeStyle;shape=link;rounded=0;orthogonalLoop=1;jettySize=auto;html=1;exitX=0.5;exitY=1;exitDx=0;exitDy=0;entryX=0.5;entryY=0;entryDx=0;entryDy=0;entryPerimeter=0;" edge="1" parent="1" source="iu4JL6hjBt67AG2MAdG2-34" target="iu4JL6hjBt67AG2MAdG2-38">
          <mxGeometry relative="1" as="geometry">
            <Array as="points">
              <mxPoint x="830.5" y="440" />
              <mxPoint x="810.5" y="440" />
            </Array>
          </mxGeometry>
        </mxCell>
        <mxCell id="iu4JL6hjBt67AG2MAdG2-34" value="BookKeeper" style="shape=parallelogram;perimeter=parallelogramPerimeter;whiteSpace=wrap;html=1;fixedSize=1;" vertex="1" parent="1">
          <mxGeometry x="760" y="380" width="125" height="50" as="geometry" />
        </mxCell>
        <mxCell id="iu4JL6hjBt67AG2MAdG2-36" value="EntryCopier" style="shape=parallelogram;perimeter=parallelogramPerimeter;whiteSpace=wrap;html=1;fixedSize=1;" vertex="1" parent="1">
          <mxGeometry x="607.5" y="430" width="125" height="50" as="geometry" />
        </mxCell>
        <mxCell id="iu4JL6hjBt67AG2MAdG2-42" style="edgeStyle=orthogonalEdgeStyle;rounded=0;orthogonalLoop=1;jettySize=auto;html=1;exitX=0;exitY=0.5;exitDx=0;exitDy=0;entryX=1;entryY=0.5;entryDx=0;entryDy=0;" edge="1" parent="1" source="iu4JL6hjBt67AG2MAdG2-38" target="iu4JL6hjBt67AG2MAdG2-36">
          <mxGeometry relative="1" as="geometry" />
        </mxCell>
        <mxCell id="iu4JL6hjBt67AG2MAdG2-38" value="BookieClient" style="shape=parallelogram;perimeter=parallelogramPerimeter;whiteSpace=wrap;html=1;fixedSize=1;" vertex="1" parent="1">
          <mxGeometry x="760" y="450" width="125" height="50" as="geometry" />
        </mxCell>
        <mxCell id="iu4JL6hjBt67AG2MAdG2-48" value="" style="edgeStyle=orthogonalEdgeStyle;rounded=0;orthogonalLoop=1;jettySize=auto;html=1;exitX=0;exitY=0.5;exitDx=0;exitDy=0;" edge="1" parent="1" source="iu4JL6hjBt67AG2MAdG2-47" target="iu4JL6hjBt67AG2MAdG2-43">
          <mxGeometry relative="1" as="geometry" />
        </mxCell>
        <mxCell id="iu4JL6hjBt67AG2MAdG2-49" style="edgeStyle=orthogonalEdgeStyle;rounded=0;orthogonalLoop=1;jettySize=auto;html=1;exitX=0.75;exitY=1;exitDx=0;exitDy=0;entryX=0.5;entryY=0;entryDx=0;entryDy=0;" edge="1" parent="1" source="iu4JL6hjBt67AG2MAdG2-43" target="iu4JL6hjBt67AG2MAdG2-32">
          <mxGeometry relative="1" as="geometry" />
        </mxCell>
        <mxCell id="iu4JL6hjBt67AG2MAdG2-43" value="DataIntegrityCheck&lt;br&gt;(DataIntegrityCheckImpl)" style="shape=parallelogram;perimeter=parallelogramPerimeter;whiteSpace=wrap;html=1;fixedSize=1;" vertex="1" parent="1">
          <mxGeometry x="700" y="540" width="170" height="60" as="geometry" />
        </mxCell>
        <mxCell id="iu4JL6hjBt67AG2MAdG2-47" value="BookKeeperAdmin" style="ellipse;whiteSpace=wrap;html=1;" vertex="1" parent="1">
          <mxGeometry x="885" y="540" width="122" height="60" as="geometry" />
        </mxCell>
      </root>
    </mxGraphModel>
  </diagram>
</mxfile>
